<svg viewBox="0 0 800 480" xmlns="http://www.w3.org/2000/svg">
  <line id="vel-track" x1="120" y1="130" x2="680" y2="130" stroke="#334155" stroke-width="4" stroke-linecap="round" />
  <line x1="120" y1="122" x2="120" y2="138" stroke="#64748b" stroke-width="2" />
  <text x="120" y="154" fill="#94a3b8" font-size="11" text-anchor="middle">0m</text>
  <line x1="260" y1="122" x2="260" y2="138" stroke="#64748b" stroke-width="2" />
  <text x="260" y="154" fill="#94a3b8" font-size="11" text-anchor="middle">25m</text>
  <line x1="400" y1="122" x2="400" y2="138" stroke="#64748b" stroke-width="2" />
  <text x="400" y="154" fill="#94a3b8" font-size="11" text-anchor="middle">50m</text>
  <line x1="540" y1="122" x2="540" y2="138" stroke="#64748b" stroke-width="2" />
  <text x="540" y="154" fill="#94a3b8" font-size="11" text-anchor="middle">75m</text>
  <line x1="680" y1="122" x2="680" y2="138" stroke="#64748b" stroke-width="2" />
  <text x="680" y="154" fill="#94a3b8" font-size="11" text-anchor="middle">100m</text>

  <circle id="vel-particle" cx="120" cy="130" r="12" fill="#38bdf8" filter="url(#glow)" />
  <line id="vel-arrow-line" x1="120" y1="112" x2="155" y2="112" stroke="#10b981" stroke-width="3" />

  <rect x="200" y="230" width="400" height="180" fill="#0f172a" stroke="#1e293b" rx="8" />
  <line x1="240" y1="380" x2="580" y2="380" stroke="#475569" stroke-width="2" />
  <line x1="240" y1="380" x2="240" y2="250" stroke="#475569" stroke-width="2" />
  <text x="230" y="265" fill="#94a3b8" font-size="11" text-anchor="end">s (m)</text>
  <text x="580" y="398" fill="#94a3b8" font-size="11" text-anchor="end">t (s)</text>
  <circle id="vel-graph-dot" cx="240" cy="380" r="5" fill="#38bdf8" />
</svg>
